HIERARCHY
ROOT Hips
{
 OFFSET 0.000000 0.000000 0.000000
 CHANNELS 6 Xposition Yposition Zposition Yrotation Xrotation Zrotation
 JOINT Chest
 {
  OFFSET 0.000000 9.585900 0.002600
  CHANNELS 3 Yrotation Xrotation Zrotation
  JOINT Chest2
  {
   OFFSET 0.000000 9.601200 -0.005300
   CHANNELS 3 Yrotation Xrotation Zrotation
   JOINT Chest3
   {
    OFFSET 0.000000 9.561800 0.000000
    CHANNELS 3 Yrotation Xrotation Zrotation
    JOINT Chest4
    {
     OFFSET 0.000000 9.552100 0.000000
     CHANNELS 3 Yrotation Xrotation Zrotation
     JOINT Neck
     {
      OFFSET 0.000000 14.453000 0.000000
      CHANNELS 3 Yrotation Xrotation Zrotation
      JOINT Head
      {
       OFFSET 0.000000 8.936500 -0.011300
       CHANNELS 3 Yrotation Xrotation Zrotation
       End Site
       {
        OFFSET 0.000000 17.073600 -0.006000
       }
      }
     }
     JOINT RightCollar
     {
      OFFSET -2.921100 9.558500 0.000000
      CHANNELS 3 Yrotation Xrotation Zrotation
      JOINT RightShoulder
      {
       OFFSET -13.519700 0.000000 0.000000
       CHANNELS 3 Yrotation Xrotation Zrotation
       JOINT RightElbow
       {
        OFFSET 0.000000 -29.696600 0.000000
        CHANNELS 3 Yrotation Xrotation Zrotation
        JOINT RightWrist
        {
         OFFSET 0.000000 -24.004700 0.000000
         CHANNELS 3 Yrotation Xrotation Zrotation
         End Site
         {
          OFFSET 0.000000 -17.728500 0.000000
         }
        }
       }
      }
     }
     JOINT LeftCollar
     {
      OFFSET 2.921100 9.558500 0.000000
      CHANNELS 3 Yrotation Xrotation Zrotation
      JOINT LeftShoulder
      {
       OFFSET 13.519700 0.000000 0.000000
       CHANNELS 3 Yrotation Xrotation Zrotation
       JOINT LeftElbow
       {
        OFFSET 0.000000 -29.696600 0.000000
        CHANNELS 3 Yrotation Xrotation Zrotation
        JOINT LeftWrist
        {
         OFFSET 0.000000 -24.004700 0.000000
         CHANNELS 3 Yrotation Xrotation Zrotation
         End Site
         {
          OFFSET 0.000000 -17.728500 0.000000
         }
        }
       }
      }
     }
    }
   }
  }
 }
 JOINT RightHip
 {
  OFFSET -7.771700 -0.012900 -0.001300
  CHANNELS 3 Yrotation Xrotation Zrotation
  JOINT RightKnee
  {
   OFFSET 0.000000 -40.869800 0.001200
   CHANNELS 3 Yrotation Xrotation Zrotation
   JOINT RightAnkle
   {
    OFFSET 0.000000 -39.717900 0.002100
    CHANNELS 3 Yrotation Xrotation Zrotation
    JOINT RightToe
    {
     OFFSET 0.000000 -4.965400 11.033500
     CHANNELS 3 Yrotation Xrotation Zrotation
     End Site
     {
      OFFSET 0.000000 -1.423100 5.872300
     }
    }
   }
  }
 }
 JOINT LeftHip
 {
  OFFSET 7.771700 -0.012900 -0.001300
  CHANNELS 3 Yrotation Xrotation Zrotation
  JOINT LeftKnee
  {
   OFFSET 0.000000 -40.869800 0.001200
   CHANNELS 3 Yrotation Xrotation Zrotation
   JOINT LeftAnkle
   {
    OFFSET 0.000000 -39.717900 0.002100
    CHANNELS 3 Yrotation Xrotation Zrotation
    JOINT LeftToe
    {
     OFFSET 0.000000 -4.965400 11.033500
     CHANNELS 3 Yrotation Xrotation Zrotation
     End Site
     {
      OFFSET 0.000000 -1.423100 5.872300
     }
    }
   }
  }
 }
}
MOTION
Frames: 11
Frame Time: 0.008333
0.000000 85.388000 0.000000 0.000000 -5.767877 0.000000 0.000000 11.653817 0.000000 0.000000 -5.885947 0.000000 0.000000 -0.000000 0.000000 0.000000 -0.000000 0.000000 0.000000 12.528835 0.000000 0.000000 0.711642 0.000000 0.000000 -0.000000 0.000000 0.000000 0.000000 -90.000000 0.000000 -2.309062 0.000000 0.000000 2.309062 0.000000 0.000000 -0.000000 0.000000 0.000000 -0.000000 90.000000 0.000000 -2.309062 0.000000 0.000000 2.309062 0.000000 0.000000 8.520406 0.000000 0.000000 1.905762 0.000000 -0.000000 -4.658285 0.000000 0.000000 -0.000000 0.000000 0.000000 8.520406 0.000000 0.000000 1.905762 0.000000 -0.000000 -4.658285 0.000000 0.000000 -0.000000 0.000000
-81.115576 46.584768 -11.300561 176.142315 -29.174139 -2.961001 1.346519 18.643802 2.807376 0.096494 2.148629 0.322727 0.162472 3.566234 0.532621 1.021949 16.154415 2.541702 -2.383692 17.812589 -0.207492 -4.397295 -2.705796 0.454051 -1.150430 -0.622049 -1.928080 5.811874 -10.209381 -18.127506 -48.167263 -67.627512 93.385133 1.794534 8.087795 -20.253242 -4.500684 -5.041428 1.790321 16.351403 -32.316918 25.972420 -68.744320 -67.898088 62.217323 -7.429960 16.993047 17.598881 -5.415534 -57.859062 -6.072706 -167.988490 81.346998 -158.485599 -6.437354 -12.473413 -8.046021 0.018062 -0.153647 0.028756 -0.099272 -59.845554 10.362303 -119.623290 83.366218 -123.510314 6.130320 -6.981748 6.531582 0.043961 0.214481 0.015923
-81.116074 46.583352 -11.298786 176.154439 -29.191070 -2.964241 1.338683 18.644251 2.809767 0.093828 2.161577 0.319971 0.163216 3.562945 0.535123 1.020977 16.148803 2.551496 -2.413878 17.818639 -0.211876 -4.483001 -2.698824 0.476139 -1.142540 -0.620367 -1.928211 5.822735 -10.216319 -18.100875 -48.087080 -67.637424 93.289338 1.788006 8.080485 -20.233480 -4.489761 -5.032538 1.790439 16.343664 -32.311475 25.945339 -68.646863 -67.914224 62.116183 -7.444169 17.026972 17.557901 -5.404024 -57.844042 -6.079365 -167.956030 81.347442 -158.456371 -6.450049 -12.469205 -8.036020 0.014605 -0.154001 0.025371 -0.089580 -59.833703 10.355277 -119.565652 83.361174 -123.457247 6.131714 -6.967489 6.542901 0.041908 0.207218 0.017226
-81.118372 46.581244 -11.296228 176.167721 -29.206069 -2.956918 1.325952 18.642317 2.802573 0.093500 2.162785 0.321027 0.161115 3.572082 0.532324 1.013806 16.140894 2.559811 -2.502122 17.812891 -0.192849 -4.543858 -2.685741 0.472199 -1.129691 -0.615645 -1.927770 5.825370 -10.213237 -18.097887 -48.075065 -67.628567 93.283326 1.790585 8.075790 -20.227576 -4.474667 -5.024065 1.786259 16.335713 -32.303816 25.921511 -68.541172 -67.935812 62.006122 -7.457704 17.072247 17.516981 -5.376278 -57.832749 -6.105218 -167.901890 81.345055 -158.407003 -6.462881 -12.471406 -8.028423 0.015752 -0.148666 0.029103 -0.071324 -59.820638 10.330455 -119.449570 83.357190 -123.352227 6.143474 -6.952561 6.555857 0.038186 0.201804 0.017514
-81.119352 46.577468 -11.290586 176.201311 -29.203213 -2.967664 1.290676 18.620015 2.802995 0.086963 2.142752 0.327026 0.165537 3.594389 0.527703 1.005242 16.144266 2.560801 -2.570459 17.813392 -0.184842 -4.672305 -2.682533 0.509462 -1.112981 -0.610087 -1.923043 5.824875 -10.204668 -18.107213 -48.110593 -67.614599 93.333787 1.797604 8.079410 -20.228408 -4.457834 -5.012976 1.783639 16.324220 -32.298195 25.869448 -68.502884 -67.911447 61.973831 -7.439685 17.137857 17.463819 -5.381534 -57.840433 -6.109059 -167.915542 81.344517 -158.429116 -6.483990 -12.492895 -8.013897 0.010219 -0.122284 0.029342 -0.073421 -59.827725 10.325228 -119.298337 83.354554 -123.225959 6.150968 -6.901462 6.601127 0.018015 0.166706 0.002490
-81.118294 46.575522 -11.288139 176.206501 -29.226828 -2.974305 1.277677 18.600385 2.814489 0.091522 2.170926 0.321749 0.161410 3.590663 0.528747 1.002372 16.149258 2.564395 -2.662708 17.810508 -0.171025 -4.846689 -2.684707 0.565356 -1.100415 -0.602344 -1.920278 5.828077 -10.198977 -18.114266 -48.133154 -67.615450 93.357946 1.796641 8.078680 -20.214052 -4.440110 -5.010245 1.785787 16.289343 -32.301448 25.762716 -68.344649 -67.871281 61.831942 -7.468213 17.200837 17.410578 -5.367719 -57.819924 -6.106271 -167.895578 81.343289 -158.412168 -6.480319 -12.486926 -8.014612 0.010452 -0.122840 0.028869 -0.070298 -59.808709 10.342072 -119.205606 83.344155 -123.148203 6.173312 -6.896723 6.608871 0.000741 0.165357 0.012010
-81.116725 46.574301 -11.287074 176.217588 -29.261170 -2.985040 1.270350 18.624385 2.822875 0.091374 2.176476 0.321132 0.157246 3.577331 0.535082 1.001745 16.161088 2.560941 -2.784218 17.797390 -0.146033 -5.080883 -2.691408 0.644140 -1.096439 -0.597431 -1.920924 5.833441 -10.215329 -18.082748 -48.084530 -67.628647 93.312987 1.797087 8.088040 -20.201506 -4.432747 -5.008359 1.784096 16.266051 -32.314679 25.667119 -68.183576 -67.862213 61.678241 -7.503530 17.276025 17.339372 -5.352558 -57.786971 -6.106768 -167.865036 81.340977 -158.380770 -6.488534 -12.481421 -8.004593 0.009817 -0.125096 0.028207 -0.041335 -59.784269 10.346137 -119.100356 83.319356 -123.041862 6.158368 -6.882851 6.624985 0.010278 0.158315 0.017703
-81.117111 46.571331 -11.283451 176.221900 -29.277834 -2.980399 1.264490 18.631034 2.817392 0.090787 2.167432 0.323365 0.156554 3.579476 0.536345 1.000250 16.171740 2.560759 -2.940107 17.781002 -0.117053 -5.382854 -2.701174 0.746539 -1.093398 -0.595644 -1.907180 5.837636 -10.218092 -18.081234 -48.057697 -67.635261 93.294340 1.798187 8.095381 -20.202119 -4.421802 -5.014611 1.785007 16.246401 -32.322365 25.574104 -68.081669 -67.862128 61.564352 -7.524370 17.366250 17.249230 -5.311076 -57.775251 -6.131366 -167.810045 81.336653 -158.320126 -6.496457 -12.480479 -7.996779 0.010851 -0.121547 0.030611 -0.025804 -59.769971 10.335490 -119.042422 83.316955 -122.993691 6.160348 -6.880208 6.640395 0.007807 0.161409 0.010848
-81.117730 46.569342 -11.281885 176.217101 -29.309213 -2.967743 1.270974 18.639161 2.810352 0.090445 2.168732 0.323982 0.156046 3.581476 0.537340 0.998224 16.175599 2.564110 -3.138271 17.770663 -0.085056 -5.753130 -2.714213 0.869352 -1.088277 -0.590685 -1.887777 5.836726 -10.211889 -18.084641 -48.020033 -67.639951 93.267119 1.803184 8.100249 -20.207036 -4.418226 -5.011190 1.783545 16.231593 -32.336333 25.476572 -68.021331 -67.871282 61.475025 -7.553092 17.455021 17.145238 -5.251499 -57.747295 -6.166966 -167.727967 81.331779 -158.227311 -6.512845 -12.460258 -7.993613 0.022732 -0.141125 0.032809 0.029291 -59.746702 10.303466 -119.007357 83.303761 -122.949604 6.145757 -6.903337 6.634365 0.021530 0.189545 0.021028
-81.114990 46.567550 -11.280341 176.227358 -29.342185 -2.981396 1.262441 18.621160 2.822348 0.093465 2.196910 0.323231 0.155638 3.584752 0.538213 0.996038 16.181713 2.566632 -3.372799 17.754071 -0.050988 -6.186890 -2.730095 1.008826 -1.087426 -0.585448 -1.883828 5.841773 -10.204750 -18.072483 -47.988390 -67.644800 93.244278 1.812316 8.106040 -20.198287 -4.416732 -5.020495 1.763405 16.211506 -32.345714 25.401044 -68.027467 -67.889030 61.437678 -7.590141 17.527865 17.030843 -5.232438 -57.717194 -6.158895 -167.688932 81.327874 -158.189687 -6.530613 -12.454581 -7.970073 0.025465 -0.145165 0.023630 0.053348 -59.723627 10.311520 -118.909034 83.281112 -122.848136 6.141339 -6.891414 6.640624 0.019364 0.183599 0.034125
-81.114171 46.566325 -11.280387 176.251358 -29.383670 -2.989164 1.239187 18.650847 2.818524 0.094473 2.185681 0.324774 0.155121 3.587808 0.538987 0.993724 16.187756 2.569150 -3.642031 17.733642 -0.017267 -6.676768 -2.746123 1.161617 -1.084357 -0.575291 -1.885942 5.849410 -10.198892 -18.056207 -47.962572 -67.647579 93.222759 1.809405 8.111330 -20.204725 -4.419142 -5.011496 1.747438 16.204736 -32.365260 25.309148 -68.133219 -67.903949 61.488468 -7.637116 17.576896 16.909714 -5.201498 -57.681762 -6.170576 -167.744702 81.325467 -158.258293 -6.563403 -12.468446 -7.930331 0.018157 -0.126850 0.016955 0.072547 -59.686459 10.309570 -118.777570 83.274799 -122.742739 6.133051 -6.837831 6.688597 -0.002203 0.140835 0.025699
